<?xml version="1.0" encoding="utf-8"?>
<!-- Generator: Adobe Illustrator 25.1.0, SVG Export Plug-In . SVG Version: 6.00 Build 0)  -->
<svg version="1.1" id="Layer_1" xmlns="http://www.w3.org/2000/svg" xmlns:xlink="http://www.w3.org/1999/xlink" x="0px" y="0px"
	 viewBox="0 0 1535 616" style="enable-background:new 0 0 1535 616;" xml:space="preserve">
<g id="Layer_1_1_">
	<g id="MAP_KEY">
		<rect x="1369" y="1" style="fill:#FFFFFF;stroke:#B2B3B6;" width="165.4" height="614.4"/>
		<rect x="0.5" y="1" style="fill:#FFFFFF;stroke:#B2B3B6;" width="1360.3" height="614.4"/>
		<rect x="1374.9" y="7.1" style="fill:#E3E3E3;" width="154.3" height="601.8"/>
		<text transform="matrix(1 0 0 1 1399.0597 85.495)" style="fill:#231F20; font-family:'ArialMT'; font-size:24px;">Map Key</text>
		<text transform="matrix(1 0 0 1 1432.9689 156.5236)" style="fill:#444444; font-family:'ArialMT'; font-size:10px;">The Hub</text>
		<text transform="matrix(1 0 0 1 1432.9689 221.6433)" style="fill:#444444; font-family:'ArialMT'; font-size:10px;">Restaurant</text>
		<text transform="matrix(1 0 0 1 1432.9689 289.502)" style="fill:#444444; font-family:'ArialMT'; font-size:10px;">Disabled Toilet</text>
		<text transform="matrix(1 0 0 1 1432.9689 356.5637)" style="fill:#444444; font-family:'ArialMT'; font-size:10px;">Female Toilet</text>
		<text transform="matrix(1 0 0 1 1432.9689 489.5734)" style="fill:#444444; font-family:'ArialMT'; font-size:10px;">Shower Facilities</text>
		<text transform="matrix(1 0 0 1 1432.9689 555.0734)" style="fill:#444444; font-family:'ArialMT'; font-size:10px;">Business Centre</text>
		<text transform="matrix(1 0 0 1 1432.9689 422.6546)" style="fill:#444444; font-family:'ArialMT'; font-size:10px;">Male Toilet</text>
		<line style="fill:none;stroke:#231F20;" x1="1394.2" y1="101.1" x2="1499.6" y2="101.1"/>
		<g>
			<rect x="1397.9" y="204.6" style="fill:#1D1D1B;" width="1.2" height="7.7"/>
			<rect x="1400.5" y="204.6" style="fill:#1D1D1B;" width="1.2" height="7.7"/>
			<line style="fill:none;stroke:#622066;stroke-width:14.445;" x1="1413.4" y1="232.3" x2="1413.4" y2="232.3"/>
			<path style="fill:#1D1D1B;" d="M1411.9,233.6c-1.2,0-2.1-1-2.1-2.1v-11.8h-1.2h-0.1c-0.4,0-0.7-0.1-1-0.3
				c-0.2-0.2-0.3-0.7-0.2-1.2c0.1-0.6,1.4-9.3,1.8-11.5c0.2-1.5,1.2-2.4,2.5-2.4c1.4,0,2.5,1.1,2.5,2.5v24.8
				C1414,232.6,1413.1,233.6,1411.9,233.6z M1410.9,218.4v13c0,0.5,0.4,0.9,0.9,0.9s0.9-0.4,0.9-0.9v-24.8c0-0.7-0.6-1.3-1.3-1.3
				c-0.7,0-1.2,0.5-1.3,1.4c-0.4,2.3-1.7,11.5-1.8,11.5v0.1c0,0,0,0,0,0.1l0,0l0,0H1410.9z"/>
			<line style="fill:none;stroke:#622066;stroke-width:14.445;" x1="1401.3" y1="232.3" x2="1401.3" y2="232.3"/>
			<path style="fill:#1D1D1B;" d="M1399.8,233.6c-1.2,0-2.1-1-2.1-2.1v-7.7v-7.4c0-0.1,0-0.1-0.1-0.1c-1.3,0-2.3-1.1-2.3-2.5v-9.2
				h1.2v9.2c0,0.6,0.3,1.3,1.1,1.3c0.7,0,1.3,0.6,1.3,1.3v7.4v7.7c0,0.5,0.4,0.9,0.9,0.9s0.9-0.4,0.9-0.9v-15c0-0.7,0.6-1.3,1.3-1.3
				c0.8,0,1.1-0.7,1.1-1.3v-9.2h1.2v9.2c0,1.5-1,2.5-2.3,2.5c-0.1,0-0.1,0-0.1,0.1v7.4v7.7C1401.9,232.6,1400.9,233.6,1399.8,233.6z
				"/>
		</g>
		<g>
			<path style="fill:#1D1D1B;" d="M1404.5,342.7c-2.3,0-4.1-1.9-4.1-4.3s1.8-4.3,4.1-4.3c2.3,0,4.1,1.9,4.1,4.3
				S1406.7,342.7,1404.5,342.7z M1404.5,335.7c-1.4,0-2.5,1.2-2.5,2.7s1.1,2.7,2.5,2.7s2.5-1.2,2.5-2.7S1405.9,335.7,1404.5,335.7z"
				/>
			<path style="fill:#1D1D1B;" d="M1412.6,357.8h-1.6v-7.7c0-3.3-1.4-4.9-4.4-4.9h-4c-3.1,0-4.6,1.6-4.6,4.9v7.7h-1.6v-7.7
				c0-4.2,2.2-6.5,6.2-6.5h4c2.8,0,6,1.1,6,6.5V357.8z"/>
			<g>
				<rect x="1403.7" y="363.1" style="fill:#1D1D1B;" width="1.6" height="10.2"/>
				<polygon style="fill:#1D1D1B;" points="1401.4,373.4 1399.8,373.4 1399.8,363.3 1397.4,363.3 1399.7,353.9 1399.7,349.9 
					1401.3,349.9 1401.3,354 1399.5,361.7 1401.4,361.7 				"/>
				<polygon style="fill:#1D1D1B;" points="1407.6,373.4 1407.6,361.7 1409.5,361.7 1407.6,354 1407.6,349.9 1409.2,349.9 
					1409.2,353.9 1411.5,363.3 1409.2,363.3 1409.2,373.4 				"/>
			</g>
		</g>
		<g>
			<path style="fill:#1D1D1B;" d="M1405.1,288.7v1.6c0,0.4,0.3,0.7,0.7,0.7h4.9c1.3,0,1.6,0,2.2,0.6l2.8,2.8l1-1l-2.8-2.8
				c-1-1-1.8-1-3.2-1h-4.2v-0.9L1405.1,288.7L1405.1,288.7z"/>
			<path style="fill:#1D1D1B;" d="M1417.9,294.5l-2.6,2.6l-2.7-2.8l0,0c-0.9-0.9-1.1-1-2.4-1h-7.3c-1.1,0-2-0.9-2-2v-9
				c0-1,0.5-1.5,1.5-1.5h1.3c0.9,0,1.5,0.8,1.5,1.5v4.4c0,0.2,0.1,0.4,0.2,0.5s0.3,0.2,0.5,0.2h5.7v-0.7c0-0.4-0.3-0.7-0.7-0.7h-4.3
				v-3.7c0-1.4-1.1-2.9-2.9-2.9h-1.3c-1.7,0-2.9,1.1-2.9,2.9v4.6l0,0v1.2l0,0v3.1c0,1.9,1.5,3.4,3.4,3.4h7.3c0.4,0,0.7,0,0.8,0
				c0.1,0,0.3,0.3,0.6,0.6l3.2,3.3c0.1,0.1,0.3,0.2,0.5,0.2l0,0c0.2,0,0.4-0.1,0.5-0.2l3.1-3.1L1417.9,294.5z"/>
			<path style="fill:#1D1D1B;" d="M1403.1,278.6c2,0,3.5-1.7,3.5-3.7s-1.6-3.7-3.5-3.7s-3.5,1.7-3.5,3.7S1401.1,278.6,1403.1,278.6z
				 M1403.1,272.6c1.2,0,2.2,1,2.2,2.3s-1,2.3-2.2,2.3s-2.2-1-2.2-2.3S1401.9,272.6,1403.1,272.6z"/>
			<path style="fill:#1D1D1B;" d="M1407.7,296c-0.8,2.7-3.3,4.7-6.2,4.7c-3.6,0-6.5-2.9-6.5-6.5c0-2.2,1.2-4.3,3-5.5v-1.6
				c-2.7,1.3-4.4,4.1-4.4,7.1c0,4.3,3.5,7.9,7.9,7.9c3.7,0,6.9-2.6,7.7-6.1H1407.7z"/>
		</g>
		<g>
			<path style="fill:#1D1D1B;" d="M1404.9,409c-2.2,0-4-1.9-4-4.2s1.8-4.2,4-4.2s4,1.9,4,4.2S1407.2,409,1404.9,409z M1404.9,402.2
				c-1.4,0-2.5,1.2-2.5,2.6s1.1,2.6,2.5,2.6s2.5-1.2,2.5-2.6S1406.3,402.2,1404.9,402.2z"/>
			<rect x="1408.2" y="416.1" style="fill:#1D1D1B;" width="1.6" height="23"/>
			<rect x="1404.2" y="425.4" style="fill:#1D1D1B;" width="1.6" height="13.7"/>
			<rect x="1400.1" y="416.1" style="fill:#1D1D1B;" width="1.6" height="23"/>
			<path style="fill:#1D1D1B;" d="M1413.4,423.8h-1.6v-7.6c0-3.2-1.5-4.8-4.5-4.8h-4.9c-3,0-4.5,1.6-4.5,4.8v7.6h-1.6v-7.6
				c0-4.1,2.1-6.3,6-6.3h4.9c3.9,0,6,2.3,6,6.3v7.6H1413.4z"/>
		</g>
		<g>
			<path style="fill:#1D1D1B;" d="M1405.8,159.6c6.1,0,11.1-5,11.1-11.1v-5.8h-22.1v5.8C1394.7,154.7,1399.7,159.6,1405.8,159.6z
				 M1396,144.1h19.5v4.5c0,5.4-4.4,9.7-9.7,9.7c-5.4,0-9.7-4.4-9.7-9.7v-4.5H1396z"/>
			<rect x="1394.1" y="160.9" style="fill:#1D1D1B;" width="23.5" height="1.3"/>
			<path style="fill:#1D1D1B;" d="M1418.2,144.2v1.3c1.6,0,3,1.3,3,2.8c0,1.6-1.3,2.8-3,2.8c-0.1,0-0.2,0-0.3,0l-0.3,1.3
				c0.2,0,0.4,0,0.6,0c2.4,0,4.3-1.9,4.3-4.1C1422.5,146.1,1420.5,144.2,1418.2,144.2z"/>
		</g>
		<g>
			<path style="fill:#1D1D1B;" d="M1411.6,480.2h-17.1V478c0-2,1.3-3.3,3.3-3.3h10.6c2.1,0,3.3,1.7,3.3,3.3v2.2H1411.6z
				 M1396.1,478.6h14V478c0-0.8-0.6-1.7-1.7-1.7h-10.6c-1.1,0-1.7,0.6-1.7,1.7L1396.1,478.6L1396.1,478.6z"/>
			<path style="fill:#1D1D1B;" d="M1403.2,467.8c-0.2,0-0.4,0.1-0.6,0.2c-0.1,0.1-0.2,0.4-0.2,0.6v4.5h0.8h0.8l0,0l0,0V470
				c0.1-0.3,0.3-0.6,0.6-0.6h13.3l0,0v-1.6l0,0H1403.2z"/>
			<g>
				<polygon style="fill:#1D1D1B;" points="1401.6,486.4 1401.7,481.8 1400.1,481.8 1400,486.4 				"/>
				<polygon style="fill:#1D1D1B;" points="1401.5,492.8 1401.6,488.2 1400,488.2 1399.9,492.8 				"/>
				<polygon style="fill:#1D1D1B;" points="1404.4,488.2 1404.4,492.8 1406,492.8 1405.9,488.2 				"/>
				<polygon style="fill:#1D1D1B;" points="1405.9,486.4 1405.8,481.8 1404.2,481.8 1404.3,486.4 				"/>
				<polygon style="fill:#1D1D1B;" points="1404.6,501.1 1404.7,505.7 1406.2,505.7 1406.2,501.1 				"/>
				<polygon style="fill:#1D1D1B;" points="1399.8,501.1 1399.7,505.7 1401.3,505.7 1401.4,501.1 				"/>
				<polygon style="fill:#1D1D1B;" points="1401.4,499.3 1401.5,494.7 1399.9,494.7 1399.8,499.3 				"/>
				<polygon style="fill:#1D1D1B;" points="1404.5,494.7 1404.5,499.3 1406.1,499.3 1406.1,494.7 				"/>
				<polygon style="fill:#1D1D1B;" points="1409.2,492.8 1410.8,492.8 1410.4,488.2 1408.8,488.2 				"/>
				<polygon style="fill:#1D1D1B;" points="1409.7,499.3 1411.3,499.3 1410.9,494.7 1409.3,494.7 				"/>
				<polygon style="fill:#1D1D1B;" points="1396.3,499.3 1396.6,494.7 1395,494.7 1394.7,499.3 				"/>
				<polygon style="fill:#1D1D1B;" points="1409.8,501.1 1410.2,505.7 1411.8,505.7 1411.4,501.1 				"/>
				<polygon style="fill:#1D1D1B;" points="1395.8,505.7 1396.1,501.1 1394.5,501.1 1394.2,505.7 				"/>
				<polygon style="fill:#1D1D1B;" points="1408.7,486.4 1410.3,486.4 1409.9,481.8 1408.4,481.8 				"/>
				<polygon style="fill:#1D1D1B;" points="1397.3,486.4 1397.6,481.8 1396,481.8 1395.7,486.4 				"/>
				<polygon style="fill:#1D1D1B;" points="1396.8,492.8 1397.1,488.2 1395.5,488.2 1395.2,492.8 				"/>
			</g>
		</g>
		<polyline style="fill:none;stroke:#231F20;stroke-width:1.5;stroke-linejoin:bevel;" points="1391.8,548 1391.8,560.7 
			1416.6,560.7 1416.6,545 1404,552.4 1392.1,543.5 1412,543.5 		"/>
	</g>
	<g id="ROOMS">
		<g id="ROOM-026">
			
				<rect id="SHAPE-026" x="1146" y="438.4" style="fill:#B1B3B5;stroke:#FFFFFF;stroke-width:2;stroke-miterlimit:10;" width="61.4" height="62.8"/>
			<polygon id="ICON-026" style="fill:#231F20;" points="1189.4,480.2 1164.1,480.2 1162.8,478.9 1162.8,466 1165.5,466 
				1165.5,477.6 1188.1,477.6 1188.1,465.2 1177.2,471.6 1175.8,471.5 1163.6,462.4 1164.4,460 1184.8,460 1184.8,462.6 
				1168.4,462.6 1176.7,468.9 1188.7,461.7 1190.7,462.9 1190.7,478.9 			"/>
		</g>
		<g id="ROOM-025">
			
				<rect id="SHAPE-025" x="945.4" y="433.3" style="fill:#B1B3B5;stroke:#FFFFFF;stroke-width:2;stroke-miterlimit:10;" width="87.4" height="29"/>
			<g id="ICON-025">
				<g>
					<path style="fill:#111516;" d="M1001.1,442.3c-1.1,0-2-0.9-2-2.1s0.9-2.1,2-2.1s2,0.9,2,2.1
						C1003,441.4,1002.1,442.3,1001.1,442.3z M1001.1,438.8c-0.7,0-1.2,0.5-1.2,1.3c0,0.7,0.5,1.3,1.2,1.3s1.2-0.5,1.2-1.3
						C1002.2,439.5,1001.7,438.8,1001.1,438.8z"/>
					<rect x="1002.6" y="445.9" style="fill:#111516;" width="0.8" height="11.5"/>
					<rect x="1000.7" y="450.5" style="fill:#111516;" width="0.8" height="6.9"/>
					<rect x="998.7" y="445.9" style="fill:#111516;" width="0.8" height="11.5"/>
					<path style="fill:#111516;" d="M1005.3,449.7h-0.8v-3.8c0-1.6-0.8-2.4-2.2-2.4h-2.4c-1.5,0-2.2,0.8-2.2,2.4v3.8h-0.8v-3.8
						c0-2,1.1-3.2,3-3.2h2.5c2,0,3,1.2,3,3.2L1005.3,449.7L1005.3,449.7z"/>
				</g>
				<g>
					<path style="fill:#111516;" d="M1013.4,442.3c-1.1,0-2-0.9-2-2.1s0.9-2.1,2-2.1s2,0.9,2,2.1
						C1015.3,441.4,1014.5,442.3,1013.4,442.3z M1013.4,438.8c-0.7,0-1.2,0.5-1.2,1.3c0,0.7,0.5,1.3,1.2,1.3s1.2-0.5,1.2-1.3
						C1014.5,439.5,1014,438.8,1013.4,438.8z"/>
					<path style="fill:#111516;" d="M1017.3,449.7h-0.8V446c0-1.6-0.7-2.4-2.1-2.4h-2c-1.5,0-2.2,0.8-2.2,2.4v3.8h-0.8V446
						c0-2,1.1-3.2,3-3.2h2c1.3,0,2.9,0.5,2.9,3.2L1017.3,449.7L1017.3,449.7z"/>
					<g>
						<rect x="1013" y="452.3" style="fill:#111516;" width="0.8" height="5"/>
						<polygon style="fill:#111516;" points="1011.9,457.4 1011.1,457.4 1011.1,452.5 1009.9,452.5 1011.1,447.8 1011.1,445.9 
							1011.8,445.9 1011.8,447.8 1011,451.7 1011.9,451.7 						"/>
						<polygon style="fill:#111516;" points="1014.9,457.4 1014.9,451.7 1015.9,451.7 1014.9,447.8 1014.9,445.9 1015.7,445.9 
							1015.7,447.8 1016.8,452.5 1015.7,452.5 1015.7,457.4 						"/>
					</g>
				</g>
				<text transform="matrix(1 0 0 1 958.167 451.833)" style="font-family:'ArialMT'; font-size:9.2411px;">Visitors</text>
			</g>
		</g>
		<g id="ROOM-024">
			<polygon id="SHAPE-024" style="fill:#B1B3B5;stroke:#FFFFFF;stroke-width:2;stroke-miterlimit:10;" points="1084.5,377.5 
				971.2,377.3 971,367.9 956.3,367.9 956.3,310.4 1084.5,310.4 			"/>
			<g id="ICON-024">
				<path style="fill:#111516;" d="M1019.8,336.7c-1.6,0-2.9-1.3-2.9-3c0-1.6,1.3-3,2.9-3s2.9,1.3,2.9,3
					C1022.6,335.4,1021.4,336.7,1019.8,336.7z M1019.8,331.8c-0.9,0-1.7,0.8-1.7,1.9s0.8,1.9,1.7,1.9s1.7-0.8,1.7-1.9
					C1021.6,332.8,1020.8,331.8,1019.8,331.8z"/>
				<path style="fill:#111516;" d="M1025.5,347.3h-1.2v-5.4c0-2.4-0.9-3.4-3.2-3.4h-2.8c-2.1,0-3.2,1.1-3.2,3.4v5.4h-1.2v-5.4
					c0-2.9,1.6-4.5,4.4-4.5h2.8c2,0,4.2,0.8,4.2,4.5v5.4H1025.5z"/>
				<g>
					<rect x="1019.2" y="351.2" style="fill:#111516;" width="1.2" height="7.1"/>
					<polygon style="fill:#111516;" points="1017.6,358.4 1016.5,358.4 1016.5,351.3 1014.8,351.3 1016.5,344.5 1016.5,341.8 
						1017.6,341.8 1017.6,344.7 1016.3,350.1 1017.6,350.1 					"/>
					<polygon style="fill:#111516;" points="1021.9,358.4 1021.9,350.1 1023.3,350.1 1021.9,344.7 1021.9,341.8 1023.1,341.8 
						1023.1,344.5 1024.7,351.3 1023.1,351.3 1023.1,358.4 					"/>
				</g>
			</g>
		</g>
		<g id="ROOM-023">
			
				<rect id="SHAPE-023" x="956.3" y="248" style="fill:#B1B3B5;stroke:#FFFFFF;stroke-width:2;stroke-miterlimit:10;" width="128.2" height="62.3"/>
			<g id="ICON-023">
				<path style="fill:#111516;" d="M1019.3,269.5c-1.6,0-2.9-1.3-2.9-3s1.3-3,2.9-3s2.9,1.3,2.9,3S1020.9,269.5,1019.3,269.5z
					 M1019.3,264.7c-0.9,0-1.7,0.8-1.7,1.9s0.8,1.9,1.7,1.9s1.7-0.8,1.7-1.9C1021.2,265.4,1020.4,264.7,1019.3,264.7z"/>
				<rect x="1021.7" y="274.6" style="fill:#111516;" width="1.2" height="16.4"/>
				<rect x="1018.8" y="281.2" style="fill:#111516;" width="1.2" height="9.8"/>
				<rect x="1015.9" y="274.6" style="fill:#111516;" width="1.2" height="16.4"/>
				<path style="fill:#111516;" d="M1025.4,280.1h-1.2v-5.4c0-2.2-1.1-3.4-3.2-3.4h-3.6c-2.1,0-3.2,1.1-3.2,3.4v5.4h-1.2v-5.4
					c0-2.9,1.6-4.5,4.4-4.5h3.6c2.8,0,4.4,1.6,4.4,4.5V280.1L1025.4,280.1z"/>
			</g>
		</g>
		<g id="ROOM-022">
			
				<rect id="SHAPE-022" x="841.4" y="88.3" style="fill:#B1B3B5;stroke:#FFFFFF;stroke-width:2;stroke-miterlimit:10;" width="166.8" height="100.8"/>
			<g id="ICON-022">
				<path style="fill:#231F20;" d="M929.8,131.3h-11.6v-1.5c0-1.3,0.9-2.2,2.2-2.2h7.1c1.5,0,2.2,1.2,2.2,2.2L929.8,131.3
					L929.8,131.3z M919.2,130.3h9.5v-0.4c0-0.5-0.4-1.2-1.2-1.2h-7.1c-0.8,0-1.2,0.4-1.2,1.2V130.3L919.2,130.3z"/>
				<path style="fill:#231F20;" d="M924.1,122.9c-0.1,0-0.3,0-0.4,0.1c-0.1,0.1-0.1,0.3-0.1,0.4v3h0.5h0.5l0,0l0,0v-2.1
					c0-0.3,0.3-0.4,0.4-0.4h9l0,0v-1.1l0,0L924.1,122.9L924.1,122.9z"/>
				<g>
					<polygon style="fill:#231F20;" points="923,135.6 923,132.4 922,132.4 922,135.6 					"/>
					<polygon style="fill:#231F20;" points="922.9,139.9 923,136.8 921.8,136.8 921.8,139.9 					"/>
					<polygon style="fill:#231F20;" points="924.9,136.8 924.9,139.9 925.9,139.9 925.9,136.8 					"/>
					<polygon style="fill:#231F20;" points="925.9,135.6 925.8,132.4 924.7,132.4 924.9,135.6 					"/>
					<polygon style="fill:#231F20;" points="925,145.6 925,148.7 926.1,148.7 926.1,145.6 					"/>
					<polygon style="fill:#231F20;" points="921.7,145.6 921.7,148.7 922.8,148.7 922.8,145.6 					"/>
					<polygon style="fill:#231F20;" points="922.9,144.3 922.9,141.1 921.8,141.1 921.7,144.3 					"/>
					<polygon style="fill:#231F20;" points="924.9,141.1 925,144.3 926.1,144.3 925.9,141.1 					"/>
					<polygon style="fill:#231F20;" points="928.2,139.9 929.2,139.9 929,136.8 927.9,136.8 					"/>
					<polygon style="fill:#231F20;" points="928.4,144.3 929.5,144.3 929.4,141.1 928.2,141.1 					"/>
					<polygon style="fill:#231F20;" points="919.3,144.3 919.6,141.1 918.5,141.1 918.3,144.3 					"/>
					<polygon style="fill:#231F20;" points="928.6,145.6 928.8,148.7 929.9,148.7 929.6,145.6 					"/>
					<polygon style="fill:#231F20;" points="919.1,148.7 919.2,145.6 918.1,145.6 917.9,148.7 					"/>
					<polygon style="fill:#231F20;" points="927.8,135.6 928.8,135.6 928.6,132.4 927.5,132.4 					"/>
					<polygon style="fill:#231F20;" points="920,135.6 920.2,132.4 919.2,132.4 918.9,135.6 					"/>
					<polygon style="fill:#231F20;" points="919.7,139.9 919.8,136.8 918.8,136.8 918.5,139.9 					"/>
				</g>
			</g>
		</g>
		<g id="ROOM-021_1_">
			<rect id="ROOM-021" x="604" y="295.1" style="opacity:0.3;enable-background:new    ;" width="13.9" height="19"/>
			<rect id="TITLE-021" x="545.8" y="284.9" style="fill:none;" width="63.5" height="46.3"/>
		</g>
		<g id="ROOM-020">
			
				<rect id="SHAPE-020" x="422.3" y="195.6" style="fill:#B1B3B5;stroke:#FFFFFF;stroke-width:2;stroke-miterlimit:10;" width="46.8" height="75.5"/>
			<g id="ICON-020">
				<path style="fill:#231F20;" d="M445.4,237.5v1.2c0,0.3,0.3,0.5,0.5,0.5h3.7c1.1,0,1.2,0,1.7,0.5l2.1,2.1l0.8-0.8l-2.1-2.1
					c-0.8-0.8-1.3-0.8-2.4-0.8h-3.2v-0.7L445.4,237.5L445.4,237.5z"/>
				<path style="fill:#231F20;" d="M455.1,241.9l-2,2l-2-2.1l0,0c-0.7-0.7-0.8-0.8-1.9-0.8h-5.6c-0.8,0-1.6-0.7-1.6-1.6v-6.7
					c0-0.8,0.4-1.1,1.1-1.1h1.1c0.7,0,1.1,0.5,1.1,1.1v3.3c0,0.1,0,0.3,0.1,0.4c0.1,0.1,0.3,0.1,0.4,0.1h4.2V236
					c0-0.3-0.3-0.5-0.5-0.5h-3.2v-2.8c0-1.1-0.8-2.1-2.1-2.1h-1.1c-1.3,0-2.1,0.8-2.1,2.1v3.6l0,0v0.9l0,0v2.4
					c0,1.5,1.2,2.6,2.6,2.6h5.6c0.3,0,0.5,0,0.5,0c0.1,0,0.3,0.1,0.5,0.4l2.4,2.5c0.1,0.1,0.3,0.1,0.4,0.1l0,0c0.1,0,0.3,0,0.4-0.1
					l2.4-2.4L455.1,241.9z"/>
				<path style="fill:#231F20;" d="M444,229.9c1.5,0,2.6-1.2,2.6-2.8s-1.2-2.8-2.6-2.8c-1.5,0-2.6,1.2-2.6,2.8
					S442.5,229.9,444,229.9z M444,225.4c0.9,0,1.6,0.8,1.6,1.7s-0.8,1.7-1.6,1.7s-1.6-0.8-1.6-1.7S443,225.4,444,225.4z"/>
				<path style="fill:#231F20;" d="M447.4,243.1c-0.5,2.1-2.5,3.6-4.8,3.6c-2.6,0-4.9-2.2-4.9-4.9c0-1.7,0.9-3.3,2.2-4.1v-1.2
					c-2,0.9-3.3,3-3.3,5.3c0,3.3,2.6,6,6,6c2.8,0,5.2-2,5.8-4.6h-1L447.4,243.1L447.4,243.1z"/>
			</g>
		</g>
		<g id="ROOM-019">
			<polygon id="SHAPE-019" style="fill:#B1B3B5;stroke:#FFFFFF;stroke-width:2;stroke-miterlimit:10;" points="523.2,307.9 
				422.8,307.9 422.8,271.7 469.4,271.4 469.2,206.9 523.2,206.9 			"/>
			<g id="ICON-019">
				<path style="fill:#111516;" d="M496.7,237.9c-1.6,0-2.9-1.3-2.9-3c0-1.6,1.3-3,2.9-3s2.9,1.3,2.9,3
					C499.6,236.6,498.3,237.9,496.7,237.9z M496.7,233c-0.9,0-1.7,0.8-1.7,1.9c0,1.1,0.8,1.9,1.7,1.9s1.7-0.8,1.7-1.9
					C498.5,234,497.7,233,496.7,233z"/>
				<rect x="499" y="243.1" style="fill:#111516;" width="1.2" height="16.4"/>
				<rect x="496.2" y="249.7" style="fill:#111516;" width="1.2" height="9.8"/>
				<rect x="493.3" y="243.1" style="fill:#111516;" width="1.2" height="16.4"/>
				<path style="fill:#111516;" d="M502.8,248.5h-1.2v-5.4c0-2.2-1.1-3.4-3.2-3.4h-3.6c-2.1,0-3.2,1.1-3.2,3.4v5.4h-1.1v-5.4
					c0-2.9,1.6-4.5,4.4-4.5h3.6c2.8,0,4.4,1.6,4.4,4.5L502.8,248.5L502.8,248.5z"/>
			</g>
		</g>
		<g id="ROOM-018">
			
				<rect id="SHAPE-018" x="422.8" y="308.2" style="fill:#B1B3B5;stroke:#FFFFFF;stroke-width:2;stroke-miterlimit:10;" width="100.4" height="73.7"/>
			<g id="ICON-018">
				<path style="fill:#111516;" d="M473.9,336.2c-1.6,0-2.9-1.3-2.9-3c0-1.6,1.3-3,2.9-3s2.9,1.3,2.9,3S475.4,336.2,473.9,336.2z
					 M473.9,331.4c-0.9,0-1.7,0.8-1.7,1.9s0.8,1.9,1.7,1.9s1.7-0.8,1.7-1.9S474.9,331.4,473.9,331.4z"/>
				<path style="fill:#111516;" d="M479.5,346.9h-1.2v-5.4c0-2.4-0.9-3.4-3.2-3.4h-2.8c-2.1,0-3.2,1.1-3.2,3.4v5.4H468v-5.4
					c0-2.9,1.6-4.5,4.4-4.5h2.8c2,0,4.2,0.8,4.2,4.5v5.4H479.5z"/>
				<g>
					<rect x="473.3" y="350.6" style="fill:#111516;" width="1.2" height="7.1"/>
					<polygon style="fill:#111516;" points="471.7,357.8 470.6,357.8 470.6,350.8 469,350.8 470.6,344.1 470.6,341.4 471.7,341.4 
						471.7,344.3 470.4,349.6 471.7,349.6 					"/>
					<polygon style="fill:#111516;" points="476.1,357.8 476.1,349.6 477.4,349.6 476.1,344.3 476.1,341.4 477.2,341.4 477.2,344.1 
						478.9,350.8 477.2,350.8 477.2,357.8 					"/>
				</g>
			</g>
		</g>
		<g id="ROOM-017">
			<polygon id="SHAPE-017" style="fill:#B1B3B5;stroke:#FFFFFF;stroke-width:2;stroke-miterlimit:10;" points="522.9,382.4 
				455.7,382.4 456,457.2 469.6,457.2 522.9,386.5 			"/>
		</g>
		<g id="ROOM-016">
			<g id="SHAPE-016">
				<polygon style="fill:#BCBCBB;" points="509,498.4 565.2,498.4 624.9,421.5 601.1,378.2 530.5,467.9 546.5,467.9 599.1,401.2 
					609.3,419.5 559.3,483.5 519.1,483.5 				"/>
				
					<rect x="567.1" y="382.3" transform="matrix(0.6166 -0.7873 0.7873 0.6166 -86.2811 604.2272)" style="fill:#BCBCBB;" width="20.2" height="16.8"/>
				
					<rect x="530.4" y="410.3" transform="matrix(0.6211 -0.7837 0.7837 0.6211 -117.8592 593.5667)" style="fill:#BCBCBB;" width="49.1" height="16.8"/>
				
					<rect x="515.9" y="441.9" transform="matrix(0.6211 -0.7837 0.7837 0.6211 -151.9764 586.1981)" style="fill:#BCBCBB;" width="28.8" height="16.8"/>
			</g>
			<rect id="TITLE-016" x="532.6" y="420.8" style="fill:none;" width="84.6" height="36.5"/>
		</g>
		<g id="ROOM-015">
			<polygon id="SHAPE-015" style="fill:#DBDCDD;stroke:#FFFFFF;stroke-width:2;stroke-miterlimit:10;" points="661.7,599.5 
				688.4,480.2 806.9,456.3 922,433.3 945.2,433.7 945.2,462.5 958.1,462.5 958.1,584.6 766.6,584.6 766.2,598.9 			"/>
			<rect id="TITLE-015" x="714.3" y="516.3" style="fill:none;" width="215.6" height="46.3"/>
		</g>
		<g id="ROOM-014">
			
				<rect id="SHAPE-014" x="1062.1" y="518.5" style="fill:#E3E3E2;stroke:#FFFFFF;stroke-width:2.0397;stroke-miterlimit:10;" width="25.4" height="89.1"/>
			<rect id="TITLE-014" x="1042.2" y="540.8" style="fill:none;" width="66.1" height="45.5"/>
		</g>
		<g id="ROOM-013">
			<polygon id="SHAPE-013" style="fill:#DBDCDD;stroke:#FFFFFF;stroke-width:2;stroke-miterlimit:10;" points="1353,606.8 
				1088.5,607.2 1089.4,519.2 1225.1,519.3 1225.2,407.9 1260.1,407.9 1260.1,321.6 1352.7,321.6 1352.7,407.8 			"/>
			<rect id="TITLE-013" x="1186" y="539.4" style="fill:none;" width="148.1" height="52.4"/>
		</g>
		<g id="ROOM-012">
			<polygon id="SHAPE-012" style="fill:#DBDCDD;stroke:#FFFFFF;stroke-width:2;stroke-miterlimit:10;" points="1352.7,318.2 
				1261.3,318.2 1261.7,318.2 1172,318 1171.2,255.3 1085.4,255.3 1085,189.4 1110,189.4 1110,10.7 1352.7,10.3 			"/>
			<rect id="TITLE-012" x="1143.6" y="152.4" style="fill:none;" width="181.3" height="71.6"/>
		</g>
		<g id="ROOM-011">
			<polygon id="SHAPE-011" style="fill:#DBDCDD;stroke:#FFFFFF;stroke-width:2;stroke-miterlimit:10;" points="422.4,606.1 
				11.6,606.1 11.6,10.1 375.9,10.1 375.3,219.2 422.4,218.9 			"/>
			<rect id="TITLE-011" x="100.4" y="273.5" style="fill:none;" width="256.2" height="95.1"/>
			<g id="ICON-011">
				<rect x="223.8" y="238.5" style="fill:#231F20;" width="0.8" height="5.6"/>
				<rect x="225.6" y="238.5" style="fill:#231F20;" width="0.8" height="5.6"/>
				<line style="fill:none;stroke:#622066;stroke-width:14.445;" x1="234.6" y1="258.2" x2="234.6" y2="258.2"/>
				<path style="fill:#231F20;" d="M233.5,259.1c-0.8,0-1.5-0.7-1.5-1.6V249h-0.8c0,0,0,0-0.1,0c-0.3,0-0.5-0.1-0.7-0.3
					c-0.1-0.1-0.3-0.5-0.1-0.9c0-0.4,0.9-6.6,1.2-8.2c0.1-1.1,0.8-1.7,1.7-1.7s1.7,0.8,1.7,1.9v17.6
					C235,258.3,234.3,259.1,233.5,259.1z M232.9,248.3v9.3c0,0.4,0.3,0.7,0.7,0.7s0.7-0.3,0.7-0.7V240c0-0.5-0.4-0.9-0.9-0.9
					s-0.8,0.4-0.9,0.9c-0.3,1.6-1.2,8.2-1.2,8.2l0,0l0,0l0,0l0,0L232.9,248.3z"/>
				<line style="fill:none;stroke:#622066;stroke-width:14.445;" x1="226.1" y1="258.2" x2="226.1" y2="258.2"/>
				<path style="fill:#231F20;" d="M225.1,259.1c-0.8,0-1.5-0.7-1.5-1.6v-5.4v-5.3c0,0,0-0.1-0.1-0.1c-0.9,0-1.6-0.8-1.6-1.7v-6.5
					h0.8v6.5c0,0.4,0.1,0.9,0.8,0.9c0.5,0,0.9,0.4,0.9,0.9v5.3v5.4c0,0.4,0.3,0.7,0.7,0.7s0.7-0.3,0.7-0.7v-10.7
					c0-0.5,0.4-0.9,0.9-0.9s0.8-0.5,0.8-0.9v-6.5h0.8v6.5c0,1.1-0.7,1.7-1.6,1.7c0,0-0.1,0-0.1,0.1v5.3v5.4
					C226.5,258.3,225.9,259.1,225.1,259.1z"/>
			</g>
		</g>
		<g id="ROOM-010">
			
				<rect id="SHAPE-010" x="958.1" y="462.5" style="fill:#B1B3B5;stroke:#FFFFFF;stroke-width:2;stroke-miterlimit:10;" width="74.6" height="122.5"/>
			<rect id="TITLE-010" x="967.3" y="514" style="fill:none;" width="55.9" height="48"/>
		</g>
		<g id="ROOM-009">
			
				<rect id="SHAPE-009" x="1197.5" y="329.7" style="fill:#B1B3B5;stroke:#FFFFFF;stroke-width:2;stroke-miterlimit:10;" width="53.3" height="60.2"/>
			<rect id="TITLE-009" x="1201.8" y="354.1" style="fill:none;" width="45.2" height="30.2"/>
		</g>
		<g id="ROOM-008">
			<polygon id="SHAPE-008" style="fill:#B1B3B5;stroke:#FFFFFF;stroke-width:2;stroke-miterlimit:10;" points="649.1,127.5 
				595.3,127.5 633.9,209.8 695.9,186.5 			"/>
			<rect id="TITLE-008" x="615.8" y="159.2" style="fill:none;" width="63.6" height="29.2"/>
		</g>
		<g id="ROOM-007">
			<polygon id="SHAPE-007" style="fill:#B1B3B5;stroke:#FFFFFF;stroke-width:2;stroke-miterlimit:10;" points="792.7,98 705.6,97.9 
				685.1,114.1 733.1,173.7 793,173.1 			"/>
			<rect id="TITLE-007" x="714.3" y="127.5" style="fill:none;" width="73.4" height="30.6"/>
		</g>
		<g id="ROOM-006">
			<polygon id="SHAPE-006" style="fill:#B1B3B5;stroke:#FFFFFF;stroke-width:2;stroke-miterlimit:10;" points="688.4,10.4 688.4,64 
				660.6,84 685.1,114 705.3,97.7 792.3,97.9 792.2,10.4 			"/>
			<rect id="TITLE-006" x="702.7" y="37.3" style="fill:none;" width="79.6" height="37.8"/>
		</g>
		<g id="ROOM-005">
			<polygon id="SHAPE-005" style="fill:#B1B3B5;stroke:#FFFFFF;stroke-width:2;stroke-miterlimit:10;" points="595.1,10.3 595.3,84 
				660.2,84.2 688.5,64.1 688.1,10.2 			"/>
			<rect id="TITLE-005" x="604" y="37.3" style="fill:none;" width="75.4" height="25"/>
		</g>
		<g id="ROOM-004">
			<polygon id="SHAPE-004" style="fill:#B1B3B5;stroke:#FFFFFF;stroke-width:2;stroke-miterlimit:10;" points="490,10.4 489.7,61.2 
				515.7,84.1 594.7,84.1 594.7,10.2 			"/>
			<rect id="TITLE-004" x="509.7" y="37.3" style="fill:none;" width="68.6" height="28.7"/>
		</g>
		<g id="ROOM-003">
			<polygon id="SHAPE-003" style="fill:#B1B3B5;stroke:#FFFFFF;stroke-width:2;stroke-miterlimit:10;" points="515.5,84.5 
				488.1,108.7 498.3,133.1 422.1,133.1 422.1,10.1 490.1,10.1 489.9,61.1 			"/>
			<rect id="TITLE-003" x="428.2" y="66" style="fill:none;" width="58.9" height="36.9"/>
		</g>
		<g id="ROOM-002">
			<polygon id="SHAPE-002" style="fill:#B1B3B5;stroke:#FFFFFF;stroke-width:2;stroke-miterlimit:10;" points="531.9,136.8 
				541.8,127.6 595.5,127.5 611.7,162.2 555.3,187.8 			"/>
			<rect id="TITLE-002" x="540.8" y="148.1" style="fill:none;" width="65.3" height="22"/>
		</g>
		<g id="ROOM-001">
			<polygon id="SHAPE-001" style="fill:#B1B3B5;stroke:#FFFFFF;stroke-width:2;stroke-miterlimit:10;" points="611.4,162.4 
				555.2,187.9 575.2,230.7 633.9,209.5 			"/>
			<rect id="TITLE-001_1_" x="564.3" y="191" style="fill:none;" width="58.9" height="29.8"/>
		</g>
	</g>
	<g id="ELEMENTS">
		<rect x="841.3" y="10.4" style="fill:#808184;stroke:#FFFFFF;stroke-width:2;stroke-miterlimit:10;" width="167" height="77.5"/>
		
			<rect x="1008.5" y="10.4" style="fill:#808184;stroke:#FFFFFF;stroke-width:2;stroke-miterlimit:10;" width="101.6" height="132.7"/>
		
			<rect x="422.9" y="382.2" style="fill:#808184;stroke:#FFFFFF;stroke-width:2;stroke-miterlimit:10;" width="46.8" height="74.9"/>
		
			<rect x="1008.5" y="143.2" style="fill:#808184;stroke:#FFFFFF;stroke-width:2;stroke-miterlimit:10;" width="101.6" height="45.9"/>
		
			<rect x="971.4" y="219.7" style="fill:#808184;stroke:#FFFFFF;stroke-width:2;stroke-miterlimit:10;" width="113.1" height="28.3"/>
		
			<rect x="971.2" y="377.5" style="fill:#808184;stroke:#FFFFFF;stroke-width:2;stroke-miterlimit:10;" width="113.5" height="21.7"/>
		
			<rect x="956.5" y="368.1" style="fill:#808184;stroke:#FFFFFF;stroke-width:2;stroke-miterlimit:10;" width="14.7" height="31.2"/>
		<rect x="757.2" y="372.7" style="fill:#808184;" width="51.1" height="25.8"/>
		<rect x="906.5" y="367.2" style="fill:#808184;" width="20.9" height="31.2"/>
		<rect x="1085.8" y="256.6" style="fill:#808184;" width="51.8" height="141.9"/>
		<path style="fill:#808184;stroke:#FFFFFF;stroke-width:2;stroke-miterlimit:10;" d="M522.4,206.5l0.1-22.7L511,159.2h-88.7V195
			h47.1v11.4C469.2,206.5,522.4,206.3,522.4,206.5z"/>
		<g id="MAIN_DOOR">
			<path style="fill:none;stroke:#000000;stroke-miterlimit:10;" d="M850.8,600.6c-6.1-3.4-10.3-9.9-10.3-17.5
				c0-7.4,4.1-14,10.3-17.5"/>
			<path style="fill:none;stroke:#000000;stroke-miterlimit:10;" d="M870.5,565.8c6.1,3.4,10.2,9.9,10.2,17.3
				c0,7.4-4.1,13.9-10.1,17.3"/>
			<circle style="fill:none;stroke:#000000;stroke-miterlimit:10;" cx="860.6" cy="583.1" r="0.8"/>
			
				<rect x="861.6" y="582.9" style="fill:none;stroke:#000000;stroke-width:0.25;stroke-miterlimit:10;" width="18.6" height="0.5"/>
			
				<rect x="846.5" y="591.6" transform="matrix(0.5 -0.866 0.866 0.5 -84.7377 1036.9304)" style="fill:none;stroke:#000000;stroke-width:0.25;stroke-miterlimit:9.9998;" width="18.3" height="0.5"/>
			
				<rect x="855.4" y="565.4" transform="matrix(0.866 -0.5 0.5 0.866 -172.6367 504.802)" style="fill:none;stroke:#000000;stroke-width:0.25;stroke-miterlimit:9.9998;" width="0.5" height="18.3"/>
		</g>
		<g id="RED_STAIRS_3_">
			
				<polyline style="fill:none;stroke:#CF0A2C;stroke-width:5;stroke-linecap:round;stroke-linejoin:round;stroke-miterlimit:10;" points="
				623.6,375.6 623.6,380 619.5,380 619.5,237 678.3,237 678.3,380 674.1,380 674.1,375.6 			"/>
			
				<rect x="649.8" y="308.8" style="fill:#CF0A2C;stroke:#111516;stroke-width:0.25;stroke-miterlimit:10;" width="25.8" height="62.3"/>
			<line style="fill:none;stroke:#000000;stroke-width:0.25;stroke-miterlimit:10;" x1="649.8" y1="320.6" x2="675.4" y2="320.6"/>
			<line style="fill:none;stroke:#000000;stroke-width:0.25;stroke-miterlimit:10;" x1="649.8" y1="329.9" x2="675.4" y2="329.9"/>
			<line style="fill:none;stroke:#000000;stroke-width:0.25;stroke-miterlimit:10;" x1="649.8" y1="334.5" x2="675.4" y2="334.5"/>
			<line style="fill:none;stroke:#000000;stroke-width:0.25;stroke-miterlimit:10;" x1="649.8" y1="338.9" x2="675.4" y2="338.9"/>
			<line style="fill:none;stroke:#000000;stroke-width:0.25;stroke-miterlimit:10;" x1="649.8" y1="343.5" x2="675.4" y2="343.5"/>
			<line style="fill:none;stroke:#000000;stroke-width:0.25;stroke-miterlimit:10;" x1="649.8" y1="348.1" x2="675.4" y2="348.1"/>
			<line style="fill:none;stroke:#000000;stroke-width:0.25;stroke-miterlimit:10;" x1="649.8" y1="352.7" x2="675.4" y2="352.7"/>
			<line style="fill:none;stroke:#000000;stroke-width:0.25;stroke-miterlimit:10;" x1="649.8" y1="357.4" x2="675.4" y2="357.4"/>
			<line style="fill:none;stroke:#000000;stroke-width:0.25;stroke-miterlimit:10;" x1="649.8" y1="361.9" x2="675.4" y2="361.9"/>
			<line style="fill:none;stroke:#000000;stroke-width:0.25;stroke-miterlimit:10;" x1="649.8" y1="366.4" x2="675.4" y2="366.4"/>
			<line style="fill:none;stroke:#000000;stroke-width:0.25;stroke-miterlimit:10;" x1="649.8" y1="325.2" x2="675.4" y2="325.2"/>
		</g>
		<g>
			
				<rect x="507.7" y="376.7" style="fill:none;stroke:#000000;stroke-width:0.25;stroke-miterlimit:10;" width="13.5" height="0.7"/>
			<path style="fill:none;stroke:#000000;stroke-width:0.25;stroke-miterlimit:10;" d="M523.6,363.7c0,0-14.3-1.5-15.9,13"/>
		</g>
		<g>
			
				<rect x="507.7" y="304.1" style="fill:none;stroke:#000000;stroke-width:0.25;stroke-miterlimit:10;" width="13.5" height="0.7"/>
			<path style="fill:none;stroke:#000000;stroke-width:0.25;stroke-miterlimit:10;" d="M523.6,291.1c0,0-14.3-1.5-15.9,13"/>
		</g>
		<path style="fill:#6E89C5;stroke:#000000;stroke-miterlimit:10;" d="M498.3,133.1"/>
		<g id="GREY_STAIRS">
			<line style="fill:none;stroke:#000000;stroke-width:0.25;stroke-miterlimit:10;" x1="898.5" y1="275.1" x2="926.5" y2="275.1"/>
			<line style="fill:none;stroke:#000000;stroke-width:0.25;stroke-miterlimit:10;" x1="898.5" y1="279.6" x2="926.5" y2="279.6"/>
			<line style="fill:none;stroke:#000000;stroke-width:0.25;stroke-miterlimit:10;" x1="898.5" y1="284.2" x2="926.5" y2="284.2"/>
			<g id="GREY_STAIRS_2_">
				<line style="fill:none;stroke:#000000;stroke-width:0.25;stroke-miterlimit:10;" x1="898.5" y1="261.3" x2="926.5" y2="261.3"/>
				<line style="fill:none;stroke:#000000;stroke-width:0.25;stroke-miterlimit:10;" x1="898.5" y1="270.6" x2="926.5" y2="270.6"/>
				<line style="fill:none;stroke:#000000;stroke-width:0.25;stroke-miterlimit:10;" x1="898.5" y1="288.9" x2="926.5" y2="288.9"/>
				<line style="fill:none;stroke:#000000;stroke-width:0.25;stroke-miterlimit:10;" x1="898.5" y1="293.4" x2="926.5" y2="293.4"/>
				<line style="fill:none;stroke:#000000;stroke-width:0.25;stroke-miterlimit:10;" x1="898.5" y1="298" x2="926.5" y2="298"/>
				<line style="fill:none;stroke:#000000;stroke-width:0.25;stroke-miterlimit:10;" x1="898.5" y1="302.6" x2="926.5" y2="302.6"/>
				<line style="fill:none;stroke:#000000;stroke-width:0.25;stroke-miterlimit:10;" x1="898.5" y1="307.1" x2="926.5" y2="307.1"/>
				<line style="fill:none;stroke:#000000;stroke-width:0.25;stroke-miterlimit:10;" x1="898.5" y1="266" x2="926.5" y2="266"/>
				<line style="fill:none;stroke:#000000;stroke-width:0.25;stroke-miterlimit:10;" x1="864.3" y1="261.3" x2="893.3" y2="261.3"/>
				<line style="fill:none;stroke:#000000;stroke-width:0.25;stroke-miterlimit:10;" x1="864.3" y1="256.6" x2="893.3" y2="256.6"/>
				<line style="fill:none;stroke:#000000;stroke-width:0.25;stroke-miterlimit:10;" x1="864.3" y1="270.6" x2="893.3" y2="270.6"/>
				<line style="fill:none;stroke:#000000;stroke-width:0.25;stroke-miterlimit:10;" x1="864.3" y1="275.1" x2="893.3" y2="275.1"/>
				<line style="fill:none;stroke:#000000;stroke-width:0.25;stroke-miterlimit:10;" x1="864.3" y1="279.6" x2="893.3" y2="279.6"/>
				<line style="fill:none;stroke:#000000;stroke-width:0.25;stroke-miterlimit:10;" x1="864.3" y1="284.2" x2="893.3" y2="284.2"/>
				<line style="fill:none;stroke:#000000;stroke-width:0.25;stroke-miterlimit:10;" x1="864.3" y1="288.9" x2="893.3" y2="288.9"/>
				<line style="fill:none;stroke:#000000;stroke-width:0.25;stroke-miterlimit:10;" x1="864.3" y1="293.4" x2="893.3" y2="293.4"/>
				<line style="fill:none;stroke:#000000;stroke-width:0.25;stroke-miterlimit:10;" x1="864.3" y1="298" x2="893.3" y2="298"/>
				<line style="fill:none;stroke:#000000;stroke-width:0.25;stroke-miterlimit:10;" x1="864.3" y1="302.6" x2="893.3" y2="302.6"/>
				<line style="fill:none;stroke:#000000;stroke-width:0.25;stroke-miterlimit:10;" x1="864.3" y1="307.1" x2="893.3" y2="307.1"/>
				<line style="fill:none;stroke:#000000;stroke-width:0.25;stroke-miterlimit:10;" x1="864.3" y1="311.7" x2="893.3" y2="311.7"/>
				<line style="fill:none;stroke:#000000;stroke-width:0.25;stroke-miterlimit:10;" x1="864.3" y1="266" x2="893.3" y2="266"/>
				<rect x="893.4" y="255.8" style="fill:#B1B3B5;" width="5" height="58.1"/>
				<path style="fill:#B1B3B5;" d="M858.1,360.7h75.1V217.8h-74.9v113.5h6V226h62.3v129.7h-68.4
					C858.1,355.8,857.8,360.9,858.1,360.7z"/>
			</g>
		</g>
		<g id="LIFTS">
			<rect x="800.8" y="259.8" style="fill:#B1B3B5;" width="7.1" height="26.3"/>
			<rect x="762.8" y="269.5" style="fill:#B1B3B5;" width="38" height="3.4"/>
			<rect x="762.8" y="318.2" style="fill:#B1B3B5;" width="38" height="3.4"/>
			<rect x="800.8" y="308.4" style="fill:#B1B3B5;" width="7.1" height="26.3"/>
			<path style="fill:#B1B3B5;" d="M808.2,237.5v-19.7h-51.1v153.4h51.1v-14.7h-7.4v8.6h-38.1v-140h38.1v12.2
				C800.8,237.3,808.5,237.1,808.2,237.5z"/>
		</g>
		<g>
			<g>
				<path style="fill:#FFFFFF;" d="M811.9,380.5c16.5,1.6,14.8,15.9,14.8,15.9h-14.8v-6.5v-9.1"/>
				<g>
					
						<rect x="811" y="380.5" style="fill:#FFFFFF;stroke:#000000;stroke-width:0.25;stroke-miterlimit:10;" width="0.8" height="15.7"/>
					<path style="fill:none;stroke:#000000;stroke-width:0.25;stroke-miterlimit:10;" d="M811.9,380.5c16.5,1.6,14.8,15.9,14.8,15.9
						"/>
				</g>
			</g>
			<g>
				<path style="fill:#FFFFFF;" d="M834.8,387.8c-8.9,0.8-8.1,8.5-8.1,8.5h8.1v-3.4V387.8"/>
				<g>
					
						<rect x="834.9" y="387.8" style="fill:#FFFFFF;stroke:#000000;stroke-width:0.25;stroke-miterlimit:10;" width="0.4" height="8.5"/>
					<path style="fill:none;stroke:#000000;stroke-width:0.25;stroke-miterlimit:10;" d="M834.8,387.8c-8.9,0.8-8.1,8.5-8.1,8.5"/>
				</g>
			</g>
		</g>
		<rect x="835.3" y="395.7" style="fill:#B1B3B5;" width="121" height="2.8"/>
		<rect x="808.2" y="395.7" style="fill:#B1B3B5;" width="2.8" height="2.8"/>
		<g>
			<g>
				<path style="fill:#FFFFFF;" d="M875.5,355c-1.6-16.5-15.9-14.8-15.9-14.8V355h6.5h9.1"/>
				<g>
					
						<rect x="859.8" y="355" style="fill:#FFFFFF;stroke:#000000;stroke-width:0.25;stroke-miterlimit:10;" width="15.7" height="0.8"/>
					<path style="fill:none;stroke:#000000;stroke-width:0.25;stroke-miterlimit:10;" d="M875.5,355c-1.6-16.5-15.9-14.8-15.9-14.8"
						/>
				</g>
			</g>
			<g>
				<path style="fill:#FFFFFF;" d="M868.3,332c-0.8,8.9-8.5,8.1-8.5,8.1V332h3.4H868.3"/>
				<g>
					
						<rect x="859.8" y="331.6" style="fill:#FFFFFF;stroke:#000000;stroke-width:0.25;stroke-miterlimit:10;" width="8.5" height="0.4"/>
					<path style="fill:none;stroke:#000000;stroke-width:0.25;stroke-miterlimit:10;" d="M868.3,332c-0.8,8.9-8.5,8.1-8.5,8.1"/>
				</g>
			</g>
		</g>
		<rect x="806.6" y="223.8" style="fill:#B1B3B5;" width="4.9" height="2.8"/>
		<rect x="843.7" y="223.8" style="fill:#B1B3B5;" width="14.7" height="2.8"/>
		<rect x="880.7" y="188.6" style="fill:#B1B3B5;" width="2.8" height="11.2"/>
		<rect x="1007" y="208.6" style="fill:#B1B3B5;" width="2.8" height="11.6"/>
		<rect x="1007.1" y="189.8" style="fill:#B1B3B5;" width="2.8" height="3.3"/>
		<rect x="880.7" y="216" style="fill:#B1B3B5;" width="2.8" height="2.2"/>
		<rect x="788" y="170" style="fill:#B1B3B5;" width="2.8" height="29.8"/>
		<rect x="757.2" y="191.2" style="fill:#B1B3B5;" width="2.8" height="27"/>
		<rect x="757.2" y="171.8" style="fill:#B1B3B5;" width="2.8" height="4.8"/>
		<rect x="788" y="216" style="fill:#B1B3B5;" width="2.8" height="2.2"/>
		<g>
			<path style="fill:#FFFFFF;" d="M972.6,363.6c-1.6-14.4-15.9-13-15.9-13v13h6.5h9.1"/>
			<g>
				
					<rect x="956.9" y="363.6" style="fill:#FFFFFF;stroke:#000000;stroke-width:0.25;stroke-miterlimit:10;" width="15.7" height="0.7"/>
				<path style="fill:none;stroke:#000000;stroke-width:0.25;stroke-miterlimit:10;" d="M972.6,363.6c-1.6-14.4-15.9-13-15.9-13"/>
			</g>
		</g>
		<g>
			<path style="fill:#FFFFFF;" d="M972.6,271.8c-1.6-14.4-15.9-13-15.9-13v13h6.5h9.1"/>
			<g>
				
					<rect x="956.9" y="271.8" style="fill:#FFFFFF;stroke:#000000;stroke-width:0.25;stroke-miterlimit:10;" width="15.7" height="0.7"/>
				<path style="fill:none;stroke:#000000;stroke-width:0.25;stroke-miterlimit:10;" d="M972.6,271.8c-1.6-14.4-15.9-13-15.9-13"/>
			</g>
		</g>
		<g>
			<path style="fill:#FFFFFF;" d="M773.7,177.5c-1.6,15.1-16.5,13.5-16.5,13.5v-13.5h6.7h9.5"/>
			<g>
				
					<rect x="757.2" y="176.7" style="fill:#FFFFFF;stroke:#000000;stroke-width:0.25;stroke-miterlimit:10;" width="16.5" height="0.8"/>
				<path style="fill:none;stroke:#000000;stroke-width:0.25;stroke-miterlimit:10;" d="M773.7,177.5c-1.6,15.1-16.5,13.5-16.5,13.5
					"/>
			</g>
		</g>
		<g>
			<path style="fill:#FFFFFF;" d="M507.3,304.5c1.6-14.4,15.9-13,15.9-13v13h-6.5h-9.1"/>
			<g>
				
					<rect x="507.5" y="304.3" style="fill:#FFFFFF;stroke:#000000;stroke-width:0.25;stroke-miterlimit:10;" width="15.7" height="0.7"/>
				<path style="fill:none;stroke:#000000;stroke-width:0.25;stroke-miterlimit:10;" d="M507.3,304.5c1.6-14.4,15.9-13,15.9-13"/>
			</g>
		</g>
		<g>
			<path style="fill:#FFFFFF;" d="M438,201.3c-1.6,15.6-15.9,14-15.9,14v-14h6.5h9.1"/>
			<g>
				
					<rect x="422.1" y="200.5" style="fill:#FFFFFF;stroke:#000000;stroke-width:0.25;stroke-miterlimit:10;" width="15.7" height="0.8"/>
				<path style="fill:none;stroke:#000000;stroke-width:0.25;stroke-miterlimit:10;" d="M437.9,201.3c-1.6,15.6-15.9,14-15.9,14"/>
			</g>
		</g>
		<g>
			<path style="fill:#FFFFFF;" d="M507.3,377.1c1.6-14.4,15.9-13,15.9-13v13h-6.5h-9.1"/>
			<g>
				
					<rect x="507.5" y="377.1" style="fill:#FFFFFF;stroke:#000000;stroke-width:0.25;stroke-miterlimit:10;" width="15.7" height="0.7"/>
				<path style="fill:none;stroke:#000000;stroke-width:0.25;stroke-miterlimit:10;" d="M507.3,377.1c1.6-14.4,15.9-13,15.9-13"/>
			</g>
		</g>
		<g>
			<path style="fill:#FFFFFF;" d="M807.2,215.7c-1.9-17.6-19.3-15.7-19.3-15.7v15.7h7.9h11.1"/>
			<g>
				
					<rect x="787.8" y="215.7" style="fill:#FFFFFF;stroke:#000000;stroke-width:0.25;stroke-miterlimit:10;" width="19.3" height="0.9"/>
				<path style="fill:none;stroke:#000000;stroke-width:0.25;stroke-miterlimit:10;" d="M807.2,215.7c-1.9-17.6-19.3-15.7-19.3-15.7
					"/>
			</g>
		</g>
		<g>
			<path style="fill:#FFFFFF;" d="M811.8,208c17.5,1.6,15.7,15.9,15.7,15.9h-15.7v-6.5v-9.1"/>
			<g>
				
					<rect x="811" y="208.2" style="fill:#FFFFFF;stroke:#000000;stroke-width:0.25;stroke-miterlimit:10;" width="0.9" height="15.7"/>
				<path style="fill:none;stroke:#000000;stroke-width:0.25;stroke-miterlimit:10;" d="M811.8,208c17.5,1.6,15.7,15.9,15.7,15.9"/>
			</g>
		</g>
		<g>
			<path style="fill:#FFFFFF;" d="M843,208c-17.2,1.6-15.3,15.9-15.3,15.9H843v-6.5v-9.1"/>
			<g>
				
					<rect x="843.1" y="208" style="fill:#FFFFFF;stroke:#000000;stroke-width:0.25;stroke-miterlimit:10;" width="0.8" height="15.7"/>
				<path style="fill:none;stroke:#000000;stroke-width:0.25;stroke-miterlimit:10;" d="M843,208c-17.2,1.6-15.3,15.9-15.3,15.9"/>
			</g>
		</g>
		<g>
			<g>
				<path style="fill:#FFFFFF;" d="M811.9,380.5c16.5,1.6,14.8,15.9,14.8,15.9h-14.8v-6.5v-9.1"/>
				<g>
					
						<rect x="811.1" y="380.5" style="fill:#FFFFFF;stroke:#000000;stroke-width:0.25;stroke-miterlimit:10;" width="0.8" height="15.7"/>
					<path style="fill:none;stroke:#000000;stroke-width:0.25;stroke-miterlimit:10;" d="M811.9,380.5c16.5,1.6,14.8,15.9,14.8,15.9
						"/>
				</g>
			</g>
			<g>
				<path style="fill:#FFFFFF;" d="M834.8,387.8c-8.9,0.8-8.1,8.5-8.1,8.5h8.1v-3.4V387.8"/>
				<g>
					
						<rect x="834.9" y="387.8" style="fill:#FFFFFF;stroke:#000000;stroke-width:0.25;stroke-miterlimit:10;" width="0.4" height="8.5"/>
					<path style="fill:none;stroke:#000000;stroke-width:0.25;stroke-miterlimit:10;" d="M834.8,387.8c-8.9,0.8-8.1,8.5-8.1,8.5"/>
				</g>
			</g>
		</g>
		<g>
			<path style="fill:#FFFFFF;" d="M863.9,215.7c1.9-17.6,19.3-15.7,19.3-15.7v15.7h-7.9h-11.1"/>
			<g>
				
					<rect x="863.9" y="215.7" style="fill:#FFFFFF;stroke:#000000;stroke-width:0.25;stroke-miterlimit:10;" width="19.3" height="0.9"/>
				<path style="fill:none;stroke:#000000;stroke-width:0.25;stroke-miterlimit:10;" d="M864,215.7c1.9-17.6,19.3-15.7,19.3-15.7"/>
			</g>
		</g>
		<line style="fill:none;stroke:#000000;stroke-width:3;stroke-miterlimit:10;" x1="865.1" y1="432.8" x2="868" y2="448.8"/>
		<line style="fill:none;stroke:#000000;stroke-width:3;stroke-miterlimit:10;" x1="808.1" y1="444.7" x2="811" y2="460.7"/>
		<line style="fill:none;stroke:#000000;stroke-miterlimit:10;" x1="825.3" y1="457.9" x2="822.4" y2="441.9"/>
		<line style="fill:none;stroke:#000000;stroke-miterlimit:10;" x1="836.7" y1="438.8" x2="839.7" y2="454.8"/>
		<line style="fill:none;stroke:#000000;stroke-miterlimit:10;" x1="850.5" y1="435.9" x2="853.6" y2="451.9"/>
		<g>
			<path style="fill:#FFFFFF;" d="M988.4,193.1c1.9,17.6,19.3,15.7,19.3,15.7v-15.7h-7.9h-11.1"/>
			<g>
				
					<rect x="988.4" y="192.2" style="fill:#FFFFFF;stroke:#000000;stroke-width:0.25;stroke-miterlimit:10;" width="19.3" height="0.9"/>
				<path style="fill:none;stroke:#000000;stroke-width:0.25;stroke-miterlimit:10;" d="M988.4,193.1c1.9,17.6,19.3,15.7,19.3,15.7"
					/>
			</g>
		</g>
		<g id="DOORS">
			<rect x="435" y="132" style="fill:#B1B3B5;" width="2.8" height="6.3"/>
			<polygon style="fill:#B1B3B5;" points="496.6,137.4 494.2,132.4 497.4,132.3 499.1,136.1 			"/>
			<polygon style="fill:#B1B3B5;" points="507.5,159.8 502.8,150.5 505.2,149.5 510.5,159.8 			"/>
			<rect x="435" y="152.6" style="fill:#B1B3B5;" width="2.8" height="7.1"/>
			<g>
				<path style="fill:#FFFFFF;" d="M420,139c1.6,15.1,16.5,13.5,16.5,13.5V139h-6.7h-9.5"/>
				<g>
					
						<rect x="419.9" y="138.2" style="fill:#FFFFFF;stroke:#000000;stroke-width:0.25;stroke-miterlimit:10;" width="16.5" height="0.8"/>
					<path style="fill:none;stroke:#000000;stroke-width:0.25;stroke-miterlimit:10;" d="M420,139c1.6,15.1,16.5,13.5,16.5,13.5"/>
				</g>
			</g>
			<g>
				<path style="fill:#FFFFFF;" d="M484.4,144.2c7.8,13,20.8,5.3,20.8,5.3l-5.7-12.3l-6.2,2.9l-8.7,4.1"/>
				<g>
					
						<rect x="483.3" y="139.9" transform="matrix(0.9064 -0.4223 0.4223 0.9064 -13.2646 220.7065)" style="fill:#FFFFFF;stroke:#000000;stroke-width:0.25;stroke-miterlimit:9.9995;" width="16.5" height="0.8"/>
					<path style="fill:none;stroke:#000000;stroke-width:0.25;stroke-miterlimit:10;" d="M484.4,144.2c7.8,13,20.8,5.3,20.8,5.3"/>
				</g>
			</g>
		</g>
		<g>
			<path style="fill:#FFFFFF;" d="M812.8,604.7c19.2-2.1,17.2-21,17.2-21h-17.2v8.6v12.2"/>
			<g>
				
					<rect x="811.9" y="583.7" style="fill:#FFFFFF;stroke:#000000;stroke-width:0.25;stroke-miterlimit:10;" width="0.9" height="21"/>
				<path style="fill:none;stroke:#000000;stroke-width:0.25;stroke-miterlimit:10;" d="M812.8,604.6c19.2-2.1,17.2-21,17.2-21"/>
			</g>
		</g>
	</g>
	<g id="TEXT">
		<text transform="matrix(1 0 0 1 1207.4434 351.4453)" style="font-family:'ArialMT'; font-size:9.2411px;">Meeting </text>
		<text transform="matrix(1 0 0 1 1207.4434 362.5557)" style="font-family:'ArialMT'; font-size:9.2411px;">room </text>
		<text transform="matrix(1 0 0 1 1207.4434 373.666)" style="font-family:'ArialMT'; font-size:9.2411px;">009</text>
		<text transform="matrix(1 0 0 1 435.5776 75.0879)" style="font-family:'ArialMT'; font-size:9.2411px;">Meeting </text>
		<text transform="matrix(1 0 0 1 435.5776 86.1978)" style="font-family:'ArialMT'; font-size:9.2411px;">room 003</text>
		<text transform="matrix(1 0 0 1 522.5942 42.0542)" style="font-family:'ArialMT'; font-size:9.2411px;">Meeting </text>
		<text transform="matrix(1 0 0 1 522.5942 53.1641)" style="font-family:'ArialMT'; font-size:9.2411px;">room 004</text>
		<text transform="matrix(1 0 0 1 620.4868 42.0542)" style="font-family:'ArialMT'; font-size:9.2411px;">Meeting </text>
		<text transform="matrix(1 0 0 1 620.4868 53.1641)" style="font-family:'ArialMT'; font-size:9.2411px;">room 005</text>
		<text transform="matrix(1 0 0 1 718.3813 42.0542)" style="font-family:'ArialMT'; font-size:9.2411px;">Meeting </text>
		<text transform="matrix(1 0 0 1 718.3813 53.1641)" style="font-family:'ArialMT'; font-size:9.2411px;">room 006</text>
		<text transform="matrix(1 0 0 1 729.7295 125.8477)" style="font-family:'ArialMT'; font-size:9.2411px;">Meeting </text>
		<text transform="matrix(1 0 0 1 729.7295 136.9575)" style="font-family:'ArialMT'; font-size:9.2411px;">room 007</text>
		<text transform="matrix(1 0 0 1 625.3906 160.0918)" style="font-family:'ArialMT'; font-size:9.2411px;">Meeting </text>
		<text transform="matrix(1 0 0 1 625.3906 171.2017)" style="font-family:'ArialMT'; font-size:9.2411px;">room 008</text>
		<text transform="matrix(1 0 0 1 550.8613 145.9912)" style="font-family:'ArialMT'; font-size:9.2411px;">Meeting </text>
		<text transform="matrix(1 0 0 1 550.8613 157.1011)" style="font-family:'ArialMT'; font-size:9.2411px;">room 002</text>
		<text transform="matrix(1 0 0 1 573.8247 194.7354)" style="font-family:'ArialMT'; font-size:9.2411px;">Meeting </text>
		<text transform="matrix(1 0 0 1 573.8247 205.8452)" style="font-family:'ArialMT'; font-size:9.2411px;">room 001</text>
		<text transform="matrix(1 0 0 1 977.8164 513.3721)" style="font-family:'ArialMT'; font-size:9.2411px;">Meeting </text>
		<text transform="matrix(1 0 0 1 977.8164 524.4824)" style="font-family:'ArialMT'; font-size:9.2411px;">room </text>
		<text transform="matrix(1 0 0 1 977.8164 535.5918)" style="font-family:'ArialMT'; font-size:9.2411px;">010</text>
		<text transform="matrix(1 0 0 1 1181.3999 184.9001)" style="font-family:'ArialMT'; font-size:15.0168px;">Technology</text>
		<text transform="matrix(1 0 0 1 174.9585 278.0425)" style="font-family:'ArialMT'; font-size:15.0168px;">The Place</text>
		<text transform="matrix(1 0 0 1 174.9585 296.0303)" style="font-family:'ArialMT'; font-size:15.0168px;">(Restaurant)</text>
		<text transform="matrix(1 0 0 1 706.9023 307.9028)" style="font-family:'ArialMT'; font-size:9.2411px;">Lounge</text>
		<g>
			<text transform="matrix(1 0 0 1 1191.6846 554.7736)" style="font-family:'ArialMT'; font-size:9.2411px;">VAA Customer </text>
			<text transform="matrix(1 0 0 1 1191.6846 565.8736)" style="font-family:'ArialMT'; font-size:9.2411px;">Relations &amp; </text>
			<text transform="matrix(1 0 0 1 1191.6846 576.9736)" style="font-family:'ArialMT'; font-size:9.2411px;">Special Assistance</text>
		</g>
		<text transform="matrix(1 0 0 1 787.8672 522.5625)" style="font-family:'ArialMT'; font-size:15.0168px;">Reception</text>
		<text transform="matrix(1 0 0 1 459.5552 404.9189)" style="font-family:'ArialMT'; font-size:9.2411px;">First aid &amp; </text>
		<text transform="matrix(1 0 0 1 459.5552 416.0283)" style="font-family:'ArialMT'; font-size:9.2411px;">Prayer  </text>
		<text transform="matrix(1 0 0 1 459.5552 427.1387)" style="font-family:'ArialMT'; font-size:9.2411px;">room</text>
		<text transform="matrix(1 0 0 1 553.186 436.6094)" style="font-family:'ArialMT'; font-size:9.2411px;">Benugo </text>
		<text transform="matrix(1 0 0 1 553.186 447.7197)" style="font-family:'ArialMT'; font-size:9.2411px;">coffee bar</text>
		<text transform="matrix(1 0 0 1 553.5405 300.957)" style="font-family:'ArialMT'; font-size:9.2411px;">Cash point </text>
		<text transform="matrix(1 0 0 1 553.5405 312.0674)" style="font-family:'ArialMT'; font-size:9.2411px;">&amp; vending  </text>
		<text transform="matrix(1 0 0 1 553.5405 323.1768)" style="font-family:'ArialMT'; font-size:9.2411px;">machine</text>
		<g>
			<text transform="matrix(1 0 0 1 1050.6497 555.1003)" style="font-family:'ArialMT'; font-size:9.2411px;">VHols  </text>
			<text transform="matrix(1 0 0 1 1050.6497 566.2004)" style="font-family:'ArialMT'; font-size:9.2411px;">Special </text>
			<text transform="matrix(1 0 0 1 1050.6497 577.3004)" style="font-family:'ArialMT'; font-size:9.2411px;">Assistance</text>
		</g>
		<text transform="matrix(1 0 0 1 771.481 298.0581)" style="font-family:'ArialMT'; font-size:9.2411px;">Lifts</text>
	</g>
	<g id="YOU_ARE_HERE">
		<circle style="fill:#D0112B;" cx="827.1" cy="302.6" r="22"/>
		<text transform="matrix(1 0 0 1 815.6489 295.8341)" style="fill:#FFFFFF; font-family:'ArialMT'; font-size:9.7071px;">YOU </text>
		<text transform="matrix(1 0 0 1 816.2982 304.9689)" style="fill:#FFFFFF; font-family:'ArialMT'; font-size:9.7071px;">ARE </text>
		<text transform="matrix(1 0 0 1 813.6527 314.212)" style="fill:#FFFFFF; font-family:'ArialMT'; font-size:9.7071px;">HERE</text>
	</g>
</g>
</svg>
